<?xml version="1.0" standalone="no"?>
<!DOCTYPE svg PUBLIC "-//W3C//DTD SVG 20010904//EN"
 "http://www.w3.org/TR/2001/REC-SVG-20010904/DTD/svg10.dtd">
<svg version="1.0" xmlns="http://www.w3.org/2000/svg"
 width="610.000000pt" height="232.000000pt" viewBox="0 0 610.000000 232.000000"
 preserveAspectRatio="xMidYMid meet">

<g transform="translate(0.000000,232.000000) scale(0.100000,-0.100000)"
fill="#7a0000" stroke="none">
<path d="M670 2316 c0 -9 30 -14 35 -6 4 6 -3 10 -14 10 -12 0 -21 -2 -21 -4z"/>
<path d="M775 2311 c-6 -5 -23 -11 -39 -13 -30 -3 -34 -13 -37 -80 0 -19 -35
-25 -41 -8 -2 6 -14 7 -35 1 -17 -5 -51 -7 -75 -5 -41 4 -47 1 -103 -53 -33
-31 -60 -59 -61 -62 0 -3 -23 -29 -50 -57 -54 -56 -110 -132 -103 -139 3 -2
18 8 34 22 162 145 188 177 148 185 -13 2 -2 13 35 36 56 34 78 39 85 20 3 -9
12 -6 29 10 13 12 31 22 39 22 18 0 89 -78 89 -98 0 -7 5 -10 10 -7 12 8 50
89 50 107 0 21 61 75 93 82 24 6 30 3 34 -14 4 -16 13 -20 50 -20 35 0 53 -7
84 -32 39 -31 40 -35 35 -78 -11 -102 -24 -154 -39 -165 -10 -7 -17 -23 -17
-37 0 -27 -37 -68 -62 -68 -9 0 -21 -7 -28 -15 -7 -8 -9 -15 -6 -15 4 0 -2
-13 -14 -30 -12 -16 -25 -30 -30 -30 -5 0 -34 -11 -64 -25 -30 -14 -58 -25
-63 -25 -4 0 -14 -14 -22 -32 -21 -46 -81 -102 -216 -198 -66 -47 -132 -98
-149 -113 -35 -35 -83 -67 -73 -49 15 23 -21 13 -52 -15 -75 -68 -107 -108
-134 -170 -22 -50 -28 -75 -23 -102 3 -20 8 -52 11 -71 4 -29 3 -31 -4 -10 -6
18 -8 10 -5 -30 2 -30 3 -68 4 -83 0 -36 20 -25 20 11 1 25 2 25 14 10 7 -10
24 -18 38 -18 13 0 34 -10 46 -23 20 -21 22 -34 22 -124 0 -112 -11 -133 -66
-133 l-29 0 -1 -65 c0 -52 -4 -69 -21 -87 -17 -18 -19 -27 -11 -42 6 -10 8
-35 5 -56 -4 -35 -2 -39 29 -54 22 -10 34 -23 34 -36 0 -26 7 -25 29 1 25 31
61 18 61 -21 0 -16 5 -32 10 -35 14 -8 13 -48 -2 -63 -19 -19 -5 -23 55 -16
50 6 57 10 85 49 16 23 48 55 72 71 23 16 60 44 81 62 21 19 51 37 66 41 23 6
27 12 25 33 -2 18 4 31 20 42 33 23 45 20 14 -5 -38 -30 -33 -42 14 -34 31 5
40 4 40 -8 0 -20 -35 -49 -62 -52 -37 -4 -38 -4 -38 -18 0 -8 -9 -22 -20 -32
-27 -25 -25 -45 4 -45 15 0 27 -7 31 -19 4 -13 12 -17 30 -13 15 2 34 -4 50
-16 21 -17 31 -19 50 -10 14 6 29 7 39 1 10 -5 30 -7 46 -5 22 3 28 9 25 24
-9 45 98 101 132 67 7 -7 12 -1 16 20 4 17 27 65 53 107 l47 77 -8 81 c-3 45
-8 90 -10 101 -1 11 4 30 11 43 13 19 13 22 -1 22 -8 0 -15 7 -15 16 0 14 -2
14 -16 3 -14 -12 -20 -9 -45 21 -34 41 -37 70 -8 77 18 5 20 11 15 37 -22 106
-14 152 21 130 30 -18 44 -56 39 -101 -3 -25 -2 -43 4 -43 6 0 10 12 10 28 0
33 36 95 53 89 7 -2 13 -15 15 -30 2 -14 10 -31 18 -38 12 -10 14 -7 12 19 -2
34 17 63 37 56 18 -7 25 -39 15 -77 -16 -62 -21 -107 -12 -107 5 0 14 18 21
41 10 33 16 40 34 37 17 -2 22 -9 20 -31 -1 -15 2 -27 8 -27 17 0 9 -40 -11
-52 -11 -7 -20 -16 -20 -21 0 -4 5 -5 10 -2 6 3 10 2 10 -2 0 -5 -9 -14 -19
-20 -30 -19 -53 -73 -57 -137 l-5 -60 22 20 c11 10 33 39 47 64 31 54 43 63
59 47 8 -8 9 -25 3 -57 -10 -53 -101 -244 -131 -276 -23 -25 -17 -53 7 -33 8
6 14 16 14 21 0 5 16 35 36 66 41 64 122 142 141 135 27 -11 3 -137 -43 -225
-15 -29 -5 -38 23 -20 32 21 91 267 80 333 -14 81 -20 105 -30 117 -7 9 -7 16
1 24 15 15 15 55 2 94 -5 16 -11 46 -13 66 -2 20 -9 44 -16 52 -7 9 -10 23 -7
32 4 10 0 21 -9 28 -13 9 -13 16 -3 43 10 26 9 42 -6 94 -9 34 -20 98 -23 143
l-6 81 27 -24 c14 -14 26 -30 26 -38 0 -7 5 -13 10 -13 16 0 11 36 -9 61 -10
13 -24 40 -31 60 -12 33 -11 40 8 74 l22 36 -22 -6 c-13 -4 -39 -19 -58 -34
-76 -57 -113 -78 -130 -74 -11 3 -19 -3 -23 -17 -4 -17 -2 -20 11 -15 63 24
69 -18 13 -87 -13 -16 -12 -18 6 -18 11 0 26 -7 33 -15 11 -13 9 -23 -10 -58
-13 -23 -31 -59 -42 -79 -10 -21 -23 -38 -29 -38 -6 0 -7 -5 -3 -11 4 -7 -1
-7 -16 1 -12 7 -25 21 -27 31 -6 22 -14 24 -32 6 -10 -10 -16 -7 -33 13 -11
14 -24 25 -28 25 -16 0 -22 15 -16 40 4 16 13 25 26 25 17 0 19 5 14 44 -5 37
-3 45 15 58 18 13 21 21 15 57 -7 45 6 71 36 71 14 0 18 12 23 57 3 32 11 59
17 61 5 2 10 11 10 21 0 9 6 26 14 37 13 18 13 22 -5 34 -14 11 -19 26 -19 62
0 48 14 72 23 39 6 -25 60 -36 97 -21 24 10 35 9 62 -5 32 -15 34 -15 47 4 8
12 25 21 40 21 14 1 47 7 74 13 36 10 53 22 73 50 25 37 61 54 90 43 11 -4 13
-13 9 -27 -6 -18 -4 -21 9 -16 10 4 20 -1 26 -13 6 -11 19 -20 30 -20 15 0 19
-8 22 -37 l3 -38 18 34 c9 19 17 49 17 68 0 36 13 41 44 18 17 -13 18 -18 8
-40 -7 -14 -12 -43 -12 -63 0 -21 -5 -43 -12 -50 -22 -22 1 -24 28 -3 15 11
37 21 51 21 42 0 73 28 73 66 0 22 6 37 15 40 10 4 15 17 13 38 -1 17 4 41 10
53 7 12 8 24 3 27 -5 3 -11 0 -14 -7 -6 -17 -94 -60 -107 -52 -5 3 -10 17 -10
31 0 20 -4 23 -23 19 -26 -7 -64 26 -52 45 5 7 -2 9 -19 4 -29 -7 -32 2 -12
29 7 9 20 15 28 12 12 -5 18 7 27 51 6 32 11 69 11 83 0 15 9 44 21 65 19 36
20 44 8 98 -14 60 -29 77 -29 32 0 -14 -7 -41 -15 -60 -8 -19 -22 -50 -31 -70
-8 -19 -18 -51 -21 -70 -6 -35 -35 -66 -57 -59 -6 2 -24 -17 -41 -42 -36 -55
-88 -85 -165 -94 -30 -4 -122 -14 -205 -24 -82 -9 -156 -21 -164 -25 -11 -6
-14 -37 -15 -136 -1 -85 -5 -137 -14 -151 -16 -29 -56 -30 -76 -2 -8 12 -19
18 -26 14 -15 -9 -40 13 -33 31 3 8 0 14 -6 14 -6 0 -11 14 -11 32 0 25 -3 29
-12 20 -7 -7 -26 -12 -43 -12 -17 0 -36 -5 -43 -12 -17 -17 -16 12 1 36 11 14
24 17 60 15 53 -5 49 -11 67 96 7 39 23 92 36 118 13 27 21 53 18 59 -8 12 3
54 19 70 7 7 25 38 41 68 15 30 36 64 45 75 9 11 23 31 30 45 7 15 34 36 62
49 27 13 49 28 49 32 0 5 -29 9 -65 9 -61 0 -65 -1 -71 -25 -13 -52 -69 -53
-76 -2 -3 21 -7 22 -163 25 -92 1 -165 -2 -170 -7z m238 -785 c19 -15 23 -41
7 -51 -5 -3 -10 -30 -10 -59 0 -39 -5 -59 -20 -76 -11 -13 -20 -34 -20 -47 0
-43 -102 -134 -204 -182 -49 -23 -94 -40 -101 -37 -26 10 -28 64 -4 98 15 24
10 21 -19 -12 -23 -25 -41 -48 -42 -51 0 -4 -13 -12 -30 -19 -35 -14 -80 -6
-80 15 0 17 -35 21 -45 5 -3 -5 -11 -10 -17 -10 -15 0 -2 70 17 89 13 14 15
12 15 -12 0 -52 17 -18 30 60 7 44 22 93 35 113 12 19 34 54 48 77 46 73 122
93 96 26 -11 -30 -11 -43 -1 -43 4 0 13 14 19 31 16 41 39 33 35 -11 -1 -18 2
-48 8 -65 9 -26 7 -41 -10 -81 l-21 -49 24 24 c14 12 28 35 32 49 11 46 32 69
70 76 20 4 39 14 42 24 11 31 46 62 71 62 28 0 24 10 -5 14 -10 2 -19 12 -21
24 -3 16 3 22 25 25 50 7 58 7 76 -7z m-733 -331 c0 -54 -80 -178 -133 -206
-17 -9 -23 -8 -34 7 -17 23 -17 44 1 44 7 0 19 7 26 15 10 13 9 15 -9 15 -11
0 -21 3 -21 8 0 11 113 129 130 135 30 11 40 6 40 -18z m96 -22 c-7 -53 -10
-58 -30 -50 -12 5 -14 15 -10 39 9 52 12 58 30 58 14 0 16 -7 10 -47z m-66
-42 c0 -22 -15 -35 -30 -26 -7 4 -7 13 0 26 14 25 30 25 30 0z m970 -56 c0 -8
-4 -15 -10 -15 -5 0 -10 7 -10 15 0 8 5 15 10 15 6 0 10 -7 10 -15z m-931 -1
c33 -7 42 -30 16 -40 -10 -4 -13 -13 -10 -25 5 -14 -8 -25 -69 -55 -42 -20
-82 -34 -90 -31 -7 3 -16 20 -18 38 -6 41 30 84 87 104 48 17 45 17 84 9z
m373 -143 c-4 -43 -29 -97 -66 -140 l-21 -23 22 6 c19 6 25 2 33 -19 26 -67
-11 -179 -73 -221 -21 -14 -41 -22 -46 -19 -5 3 -22 -6 -38 -19 -58 -48 -102
-45 -128 9 -17 38 -31 43 -61 20 -10 -8 -29 -15 -41 -15 -29 0 -57 51 -49 88
4 15 8 52 11 82 8 90 53 195 90 212 36 16 49 -1 46 -59 l-2 -48 24 45 c22 42
71 80 84 66 4 -3 0 -25 -7 -48 -7 -24 -16 -59 -20 -78 -4 -19 -20 -62 -34 -94
-19 -41 -22 -55 -11 -46 15 12 29 8 31 -11 1 -5 2 -13 3 -19 0 -5 7 -10 15
-10 18 0 33 41 41 110 11 98 94 247 150 271 39 16 50 7 47 -40z m624 -248
c-10 -10 -19 5 -10 18 6 11 8 11 12 0 2 -7 1 -15 -2 -18z m-336 -412 c0 -6 -4
-13 -10 -16 -5 -3 -10 1 -10 9 0 9 5 16 10 16 6 0 10 -4 10 -9z m-730 -60 c0
-20 -13 -35 -23 -25 -7 8 4 44 14 44 5 0 9 -9 9 -19z"/>
<path d="M935 1510 c-3 -5 1 -10 9 -10 8 0 18 5 21 10 3 6 -1 10 -9 10 -8 0
-18 -4 -21 -10z"/>
<path d="M978 1473 c-9 -9 -27 -17 -40 -19 -13 -1 -26 -3 -29 -3 -3 -1 -13
-17 -22 -36 -9 -19 -23 -35 -32 -35 -8 0 -22 -11 -31 -25 -9 -14 -23 -24 -32
-23 -9 2 -18 -8 -23 -26 -4 -16 -19 -41 -32 -55 -32 -35 -87 -113 -87 -123 0
-32 62 28 106 103 16 27 33 49 37 49 14 0 61 53 75 83 17 40 114 77 124 47 2
-5 3 10 4 35 0 25 0 45 0 45 -1 0 -9 -7 -18 -17z"/>
<path d="M622 1464 c-12 -8 -34 -36 -49 -62 -15 -26 -30 -49 -34 -52 -11 -8
-29 -58 -29 -78 1 -9 12 5 26 31 13 26 47 70 74 98 28 28 50 55 50 59 0 17
-17 19 -38 4z"/>
<path d="M670 1354 c-12 -38 -26 -73 -31 -78 -11 -12 -12 -82 -1 -72 4 4 7 11
7 14 1 19 30 109 40 125 12 17 13 16 20 -5 7 -22 8 -22 12 -3 2 12 -3 36 -10
54 l-14 34 -23 -69z"/>
<path d="M925 1320 c3 -5 13 -10 21 -10 8 0 14 5 14 10 0 6 -9 10 -21 10 -11
0 -17 -4 -14 -10z"/>
<path d="M188 1148 c-27 -28 -48 -55 -48 -59 0 -19 20 -7 47 26 16 20 37 35
49 35 12 0 25 7 28 16 20 53 -19 44 -76 -18z"/>
<path d="M245 1042 c-36 -22 -60 -50 -51 -59 3 -3 14 1 23 9 17 15 57 29 116
42 15 4 27 11 27 16 0 17 -83 11 -115 -8z"/>
<path d="M675 953 c-16 -9 -36 -23 -43 -32 -20 -24 -92 -176 -91 -192 0 -8 5
-3 10 10 5 13 34 61 65 108 45 68 59 83 75 78 15 -5 19 -2 19 19 0 14 -1 26
-2 26 -2 -1 -16 -8 -33 -17z"/>
<path d="M354 875 c-22 -14 -78 -147 -72 -166 2 -7 18 20 36 60 28 61 35 71
52 66 16 -5 20 -2 20 19 0 32 -12 39 -36 21z"/>
<path d="M460 857 c-23 -23 -50 -90 -49 -117 0 -8 7 1 16 20 8 19 26 46 39 59
13 13 24 32 24 42 0 24 -3 24 -30 -4z"/>
<path d="M654 730 c-4 -16 -12 -30 -19 -30 -15 0 -27 -38 -15 -45 4 -3 15 6
24 20 9 14 23 25 31 25 17 0 18 4 9 38 -9 31 -23 27 -30 -8z"/>
<path d="M360 659 c0 -5 5 -7 10 -4 6 3 10 8 10 11 0 2 -4 4 -10 4 -5 0 -10
-5 -10 -11z"/>
<path d="M420 590 c-12 -17 -19 -38 -16 -47 6 -14 8 -14 25 1 15 13 20 14 24
4 3 -9 8 -10 14 -3 6 6 3 22 -8 43 l-17 33 -22 -31z"/>
<path d="M1341 2307 c-6 -8 -35 -26 -66 -41 -38 -18 -57 -34 -61 -51 -3 -13
-14 -31 -25 -41 -10 -9 -28 -37 -40 -63 -13 -25 -31 -57 -41 -70 -19 -25 -25
-67 -8 -56 6 4 31 43 57 87 55 95 99 143 154 165 36 14 59 43 59 74 0 13 -16
11 -29 -4z"/>
<path d="M1920 2303 c0 -13 3 -13 15 -3 13 11 14 8 9 -18 -4 -18 -1 -32 6 -37
15 -10 20 -3 26 36 5 32 4 34 -25 36 -22 2 -31 -2 -31 -14z"/>
<path d="M1996 2294 c-4 -15 -2 -32 3 -37 13 -13 15 -80 4 -91 -5 -4 -8 -65
-8 -136 0 -146 17 -153 25 -10 5 79 7 85 28 88 19 3 22 8 16 25 -13 39 -7 117
10 136 30 33 21 51 -28 51 -39 0 -45 -3 -50 -26z"/>
<path d="M2130 2310 c0 -5 7 -7 15 -4 8 4 15 8 15 10 0 2 -7 4 -15 4 -8 0 -15
-4 -15 -10z"/>
<path d="M3128 2313 c7 -3 16 -2 19 1 4 3 -2 6 -13 5 -11 0 -14 -3 -6 -6z"/>
<path d="M1839 2273 c-7 -16 -15 -31 -17 -35 -2 -5 1 -8 6 -8 11 0 37 58 30
65 -3 3 -11 -7 -19 -22z"/>
<path d="M2098 2249 c-26 -25 -38 -69 -20 -69 19 0 53 49 50 71 l-3 24 -27
-26z"/>
<path d="M791 2229 c-17 -17 -31 -39 -31 -49 0 -10 -13 -45 -30 -77 -16 -31
-30 -63 -30 -70 0 -7 -9 -17 -20 -23 -23 -12 -27 -50 -5 -50 8 0 15 6 15 13 0
7 11 28 24 48 13 19 29 53 35 75 12 45 56 113 74 115 7 1 20 1 30 0 12 -2 17
5 17 23 0 37 -40 35 -79 -5z"/>
<path d="M902 2218 c-7 -7 -12 -25 -12 -41 0 -26 1 -27 17 -12 11 11 28 15 50
13 25 -3 33 0 33 12 0 24 -21 40 -50 40 -14 0 -31 -5 -38 -12z"/>
<path d="M1990 2203 c0 -6 -18 -30 -40 -54 -38 -42 -40 -47 -40 -107 0 -35 -5
-72 -11 -84 -14 -27 -9 -30 39 -22 35 5 40 10 45 38 2 17 1 65 -2 106 -5 56
-3 81 8 98 7 12 11 25 7 29 -3 3 -6 2 -6 -4z"/>
<path d="M1916 2185 c-3 -8 -2 -15 3 -15 5 0 14 7 21 15 10 12 10 15 -3 15 -8
0 -17 -7 -21 -15z"/>
<path d="M574 2155 c-19 -29 -39 -32 -53 -8 -13 24 -35 4 -72 -66 -16 -31 -35
-64 -41 -73 -10 -13 -10 -20 -1 -29 9 -9 20 4 45 57 35 72 61 90 95 63 12 -11
17 -10 24 4 20 35 89 10 89 -31 0 -15 2 -15 10 -2 5 8 10 18 10 21 0 10 -71
89 -81 89 -4 0 -16 -11 -25 -25z"/>
<path d="M1018 2157 c-5 -10 -8 -37 -8 -60 1 -34 3 -38 11 -24 6 9 9 36 7 60
-2 30 -5 37 -10 24z"/>
<path d="M860 2144 c0 -8 5 -12 10 -9 6 3 10 10 10 16 0 5 -4 9 -10 9 -5 0
-10 -7 -10 -16z"/>
<path d="M1780 2142 c-29 -10 -42 -52 -15 -52 15 0 39 35 33 49 -2 4 -10 6
-18 3z"/>
<path d="M5005 2106 c-33 -52 -48 -61 -70 -40 -18 19 -40 12 -85 -26 -30 -27
-32 -30 -13 -30 12 0 24 4 27 8 3 4 31 8 63 8 l58 -1 1 -41 c2 -42 18 -84 33
-84 12 0 34 47 27 59 -10 15 20 69 43 76 30 9 68 -11 79 -44 12 -34 32 -42 32
-12 0 30 26 46 55 33 25 -12 34 -45 15 -57 -5 -3 -10 -15 -10 -26 0 -15 7 -19
34 -19 42 0 49 -9 48 -65 l-1 -43 49 17 c46 15 50 19 50 48 0 17 -4 35 -10 38
-19 12 -10 44 16 61 20 14 49 17 129 17 98 0 106 -1 140 -27 20 -15 34 -33 32
-39 -2 -7 -1 -19 4 -28 5 -10 3 -23 -5 -34 -10 -14 -17 -15 -33 -7 -12 7 -37
8 -69 3 -29 -5 -38 -9 -21 -10 33 -1 38 -31 5 -31 -29 0 -52 -15 -45 -27 9
-14 -29 -31 -80 -36 -24 -3 -63 -15 -88 -27 -47 -23 -75 -21 -75 5 0 15 -13
19 -62 15 -16 -1 -34 6 -44 18 -19 23 -44 19 -44 -7 -1 -25 -25 -51 -47 -51
-11 0 -32 9 -46 20 l-25 20 -9 -37 c-10 -45 -35 -54 -57 -20 -18 26 -66 180
-66 209 0 10 -4 18 -10 18 -5 0 -10 14 -10 30 0 27 -2 30 -25 24 -19 -5 -25
-2 -25 10 0 9 -7 16 -15 16 -10 0 -15 -10 -15 -30 0 -47 -26 -36 -43 18 -8 26
-18 60 -21 75 -9 36 -43 34 -38 -2 3 -20 0 -23 -17 -18 -14 3 -26 -1 -35 -15
-10 -14 -20 -18 -36 -13 -20 6 -21 5 -10 -16 9 -17 10 -31 1 -60 -13 -43 -18
-46 -46 -26 -15 12 -21 11 -36 -4 -10 -10 -16 -25 -13 -34 4 -8 0 -22 -7 -31
-11 -13 -11 -17 2 -25 14 -7 14 -17 2 -91 -8 -46 -19 -96 -25 -113 -20 -56
-16 -78 16 -86 15 -4 37 -16 48 -26 16 -14 17 -19 6 -28 -8 -5 -17 -18 -21
-27 -7 -20 -37 -24 -55 -6 -13 13 -19 2 -24 -46 -5 -48 -25 -41 -33 11 -5 26
-10 62 -11 78 -1 17 -5 57 -8 90 -3 33 -5 65 -6 72 0 7 -16 15 -37 19 -27 5
-39 3 -48 -9 -39 -54 -123 -138 -147 -148 -29 -12 -35 -28 -17 -46 7 -7 7 -28
-2 -72 -11 -49 -11 -66 -1 -82 9 -14 9 -25 2 -39 -13 -24 -13 -73 0 -86 8 -8
8 -24 0 -55 -22 -91 -21 -115 5 -139 l25 -23 0 41 c0 28 6 48 19 61 12 12 19
31 18 48 -2 22 2 28 18 29 11 1 23 2 27 3 4 0 0 17 -8 38 -16 36 -15 36 15 60
38 30 40 44 3 37 -20 -4 -33 0 -46 15 -19 21 -14 41 10 41 13 0 13 4 0 29 -13
25 -13 31 -1 41 19 16 53 -3 57 -32 3 -21 4 -20 34 10 l32 31 12 -29 c7 -17 9
-45 5 -68 -5 -32 -3 -41 11 -46 14 -5 15 -9 5 -19 -9 -9 -14 -9 -21 3 -8 12
-10 11 -10 -7 0 -13 9 -27 21 -34 19 -9 21 -17 15 -55 -7 -52 9 -60 18 -9 4
19 11 35 17 35 18 0 22 -32 12 -84 -8 -38 -7 -53 2 -63 7 -6 16 -46 20 -87 3
-41 13 -82 21 -93 14 -17 15 -16 10 9 -8 34 11 47 23 16 13 -31 58 -84 65 -77
4 3 -1 25 -9 49 -8 23 -15 57 -15 74 0 17 -7 51 -16 75 -8 25 -14 70 -13 100
1 31 -3 68 -9 82 -11 27 -10 47 3 137 8 56 12 60 29 36 10 -14 14 -12 26 11 7
14 24 28 36 31 12 3 34 23 48 45 25 37 57 51 71 29 3 -5 12 -7 19 -4 20 8 39
-23 38 -61 -2 -41 13 -45 48 -15 44 39 51 29 48 -72 -3 -84 -5 -93 -23 -96
-11 -2 -35 -11 -53 -20 -29 -15 -31 -20 -26 -49 3 -17 0 -48 -6 -69 -11 -32
-10 -38 4 -46 14 -8 16 -18 11 -49 -6 -34 -4 -39 13 -39 11 0 25 7 32 15 35
42 69 -6 55 -77 -13 -63 -34 -96 -65 -103 -17 -4 -30 -13 -30 -21 0 -12 6 -12
37 1 21 9 41 22 46 30 4 8 15 11 24 8 14 -6 15 -23 10 -149 -7 -146 6 -210 17
-87 4 38 11 111 16 163 5 52 6 121 3 153 -5 53 -4 59 15 64 20 5 21 7 7 32
-32 59 -52 119 -45 132 12 19 40 -7 40 -36 0 -20 11 -27 83 -50 87 -28 132
-63 122 -94 -6 -19 13 -40 60 -64 54 -29 57 -33 62 -93 6 -69 39 -145 71 -160
12 -6 33 -21 47 -34 l23 -22 11 21 c16 28 64 28 91 -1 14 -15 20 -35 20 -65 0
-33 4 -43 16 -43 9 0 34 -18 55 -40 l39 -40 0 44 c0 61 -10 83 -66 140 -37 39
-47 57 -48 85 l-1 36 45 -4 c35 -2 52 -10 78 -37 18 -19 37 -34 41 -34 5 0 12
-11 15 -24 3 -13 14 -26 24 -28 10 -3 33 -29 50 -59 39 -68 66 -99 85 -99 8 0
31 11 51 25 20 14 41 25 45 25 8 0 57 -102 71 -149 19 -61 9 83 -10 157 -34
126 -29 117 -51 93 -16 -17 -32 -21 -84 -21 -58 0 -68 3 -100 31 -27 24 -35
39 -36 68 -1 56 -22 105 -48 111 -17 4 -27 20 -42 63 -11 32 -17 62 -14 67 8
13 -20 18 -147 26 -85 5 -126 3 -148 -6 -44 -18 -55 -3 -69 95 -9 60 -17 85
-27 85 -8 0 -14 5 -14 10 0 6 7 10 15 10 8 0 15 9 15 20 0 10 8 24 19 29 24
14 125 33 180 34 41 2 45 0 55 -29 6 -16 21 -44 34 -61 12 -17 22 -43 22 -57
0 -17 5 -26 15 -26 18 0 32 29 19 39 -21 15 -34 55 -34 106 0 43 3 55 15 55 9
0 30 8 48 17 18 9 36 16 41 15 4 -2 14 5 21 14 21 29 45 10 45 -35 0 -22 3
-46 6 -55 7 -19 24 -11 24 12 0 9 13 32 28 49 26 31 31 33 104 35 54 2 79 7
83 17 4 11 8 11 21 0 15 -12 16 -10 9 21 -10 47 -11 47 -39 17 -22 -24 -33
-27 -88 -27 -82 0 -108 8 -108 31 0 11 -6 19 -14 19 -8 0 -16 7 -20 15 -3 8
-17 15 -31 15 -18 0 -25 5 -25 20 0 11 6 20 13 20 8 0 19 11 25 25 15 33 36
32 51 -2 11 -24 14 -26 22 -10 7 11 6 24 -1 37 -15 28 9 36 71 22 27 -6 55 -9
64 -6 8 4 22 1 30 -6 13 -11 15 -7 15 23 0 44 14 54 34 25 15 -22 16 -22 16
-2 0 11 -5 32 -12 46 l-12 25 -44 -18 c-62 -27 -126 -25 -146 3 l-16 22 -11
-32 c-13 -37 -36 -42 -47 -11 -7 18 -10 16 -21 -20 l-12 -41 -62 -2 c-138 -4
-147 1 -147 95 0 90 12 103 138 140 49 14 53 14 62 -3 6 -10 10 -26 10 -34 0
-9 5 -16 10 -16 6 0 8 10 5 23 -4 15 1 32 13 47 16 20 29 23 101 27 46 2 92 8
103 14 22 12 68 4 68 -11 0 -6 4 -10 9 -10 5 0 -2 28 -17 63 -32 76 -30 73
-44 59 -18 -18 -67 -14 -115 9 -40 19 -59 49 -30 49 21 0 -15 19 -58 31 -32 8
-49 22 -79 63 -31 43 -46 54 -83 65 -32 8 -49 9 -57 1 -5 -5 -35 -10 -65 -10
-31 0 -63 -5 -71 -10 -10 -7 1 -9 38 -4 36 5 52 3 52 -5 0 -11 -18 -15 -52
-12 -10 1 -28 -5 -40 -13 -37 -26 -130 -16 -164 18 -10 10 -33 16 -66 16 -39
0 -59 6 -91 29 -23 17 -58 33 -78 36 -33 6 -37 4 -64 -39z m834 -246 c6 0 11
-4 11 -8 0 -16 -24 -32 -47 -32 -20 0 -23 4 -17 28 10 41 16 47 29 29 7 -10
17 -17 24 -17z m-1054 -22 c4 -18 14 -41 22 -50 9 -10 13 -26 11 -36 -3 -11 3
-30 13 -43 l19 -24 23 29 c13 16 28 26 34 23 17 -11 22 -45 8 -57 -11 -9 -11
-17 -3 -36 17 -37 -5 -78 -37 -70 -18 5 -25 2 -25 -9 0 -8 -4 -15 -10 -15 -5
0 -10 -9 -10 -20 0 -34 -29 -22 -46 19 -8 22 -21 42 -28 44 -8 3 -33 -15 -57
-39 -42 -42 -71 -55 -84 -34 -12 20 -16 153 -5 179 7 19 8 35 1 54 -7 17 -7
28 0 32 5 4 7 15 4 26 -4 13 -2 19 9 19 9 0 16 -6 16 -13 0 -8 9 -22 20 -32
19 -18 20 -17 26 11 5 28 55 74 81 74 6 0 15 -15 18 -32z m623 20 c-7 -20 -48
-23 -48 -4 0 11 9 16 26 16 16 0 24 -5 22 -12z m-69 -264 c24 -67 13 -240 -16
-270 -19 -19 -66 -13 -91 12 -15 16 -17 16 -22 -2 -28 -88 -61 -114 -145 -114
l-53 0 -16 50 c-17 53 -10 125 14 140 9 6 10 16 2 41 -17 56 -22 103 -13 118
11 16 60 3 72 -20 19 -38 39 -127 39 -176 0 -39 4 -54 13 -51 6 3 13 19 15 36
3 32 15 41 27 22 3 -5 12 -10 18 -10 8 0 9 2 1 8 -22 14 -32 49 -35 122 -4 69
-2 75 17 78 34 5 54 -29 57 -94 3 -55 21 -104 39 -104 5 0 8 11 8 24 0 16 -7
26 -22 31 -18 6 -20 8 -7 12 15 3 15 9 4 46 -6 23 -10 61 -7 83 3 36 8 43 35
52 44 14 50 11 66 -34z m-953 -42 c-3 -70 -22 -125 -36 -103 -4 8 -17 10 -35
5 -20 -5 -26 -4 -21 5 4 6 1 11 -8 11 -8 0 -17 4 -21 9 -7 12 53 101 74 109 9
3 20 11 24 19 17 29 25 10 23 -55z m85 -305 c-8 -8 -11 -7 -11 4 0 20 13 34
18 19 3 -7 -1 -17 -7 -23z m1379 13 c0 -5 -5 -10 -11 -10 -5 0 -7 5 -4 10 3 6
8 10 11 10 2 0 4 -4 4 -10z"/>
<path d="M4716 1778 c-9 -34 -8 -35 23 -41 20 -4 31 -14 35 -31 6 -24 62 -61
70 -47 5 8 -103 139 -115 140 -4 1 -9 -9 -13 -21z"/>
<path d="M4770 1790 c0 -5 5 -10 11 -10 5 0 7 5 4 10 -3 6 -8 10 -11 10 -2 0
-4 -4 -4 -10z"/>
<path d="M4667 1734 c-4 -4 -7 -17 -7 -28 0 -12 -11 -29 -24 -39 -16 -12 -22
-25 -19 -38 5 -19 7 -19 24 -3 10 9 21 26 25 37 4 12 13 27 21 35 15 15 13 34
-3 39 -6 2 -13 0 -17 -3z"/>
<path d="M4877 1694 c-20 -27 -11 -32 19 -10 12 10 16 18 9 25 -7 6 -16 1 -28
-15z"/>
<path d="M4844 1636 c-3 -8 -1 -22 4 -32 8 -14 11 -12 20 15 9 26 8 31 -4 31
-8 0 -17 -6 -20 -14z"/>
<path d="M4886 1623 c-9 -9 -7 -33 3 -33 12 0 22 28 12 34 -5 3 -11 3 -15 -1z"/>
<path d="M5273 1612 c-7 -5 -15 -28 -17 -53 -2 -24 -2 -34 1 -22 5 25 40 40
55 25 6 -6 14 -25 18 -44 l8 -33 1 30 c0 17 -4 47 -10 68 -10 37 -29 46 -56
29z"/>
<path d="M5166 1563 c-12 -12 -6 -41 10 -47 27 -10 31 -7 27 18 -5 24 -25 40
-37 29z"/>
<path d="M5010 1534 c0 -24 3 -25 27 -19 36 9 38 12 23 30 -21 25 -50 19 -50
-11z"/>
<path d="M5018 1372 c-12 -2 -18 -13 -18 -33 0 -35 16 -30 31 8 11 29 10 31
-13 25z"/>
<path d="M5151 1329 c-11 -24 -18 -30 -37 -26 -14 2 -25 -1 -28 -10 -8 -19 23
-29 43 -15 9 7 26 16 38 21 29 13 37 29 23 46 -18 21 -23 19 -39 -16z"/>
<path d="M4320 1544 c0 -9 -10 -24 -22 -33 l-21 -18 21 -5 c15 -4 22 -2 22 8
0 18 9 18 32 -3 17 -15 18 -15 18 9 0 16 -9 32 -25 42 -23 15 -25 15 -25 0z"/>
<path d="M5342 2120 c9 -28 34 -33 124 -24 l89 9 -90 5 c-49 3 -98 10 -109 15
-14 6 -18 5 -14 -5z"/>
<path d="M876 2105 c-3 -8 -17 -15 -31 -15 -20 0 -25 -5 -25 -26 0 -24 3 -25
27 -19 16 4 28 7 29 8 1 1 6 17 12 35 11 31 0 47 -12 17z"/>
<path d="M2030 2060 c0 -19 5 -30 14 -30 20 0 26 23 11 43 -18 25 -25 21 -25
-13z"/>
<path d="M1004 2016 c-3 -14 -10 -26 -15 -26 -5 0 -9 -4 -9 -10 0 -5 4 -10 9
-10 11 0 36 59 28 67 -3 3 -9 -6 -13 -21z"/>
<path d="M4600 2026 c0 -8 5 -18 10 -21 6 -3 10 1 10 9 0 8 -4 18 -10 21 -5 3
-10 -1 -10 -9z"/>
<path d="M5070 2001 c-5 -11 -10 -28 -10 -38 0 -14 5 -12 24 12 23 29 24 29
50 12 28 -19 32 -16 16 14 -7 12 -21 19 -40 19 -19 0 -33 -7 -40 -19z"/>
<path d="M1866 1993 c-6 -14 -5 -15 5 -6 7 7 10 15 7 18 -3 3 -9 -2 -12 -12z"/>
<path d="M4930 1970 c0 -17 5 -29 11 -27 6 1 21 -23 32 -53 18 -45 23 -50 25
-30 3 29 -43 140 -58 140 -5 0 -10 -13 -10 -30z"/>
<path d="M5217 1994 c-4 -4 -7 -16 -7 -26 0 -13 7 -18 26 -18 21 0 25 4 22 22
-3 23 -27 35 -41 22z"/>
<path d="M1340 1978 c-19 -6 -39 -13 -45 -18 -15 -12 -160 -32 -187 -25 -20 5
-26 0 -46 -39 -23 -48 -14 -63 13 -23 13 20 29 26 103 36 138 19 190 31 203
47 18 22 -1 33 -41 22z"/>
<path d="M5515 1973 c-51 -5 -96 -36 -78 -54 10 -10 21 -10 51 -1 49 15 96 15
162 1 28 -6 58 -8 67 -5 14 6 14 8 -1 25 -22 24 -125 42 -201 34z"/>
<path d="M4815 1960 c3 -5 8 -10 11 -10 2 0 4 5 4 10 0 6 -5 10 -11 10 -5 0
-7 -4 -4 -10z"/>
<path d="M5160 1919 c0 -20 4 -29 13 -27 18 7 20 45 3 51 -12 5 -16 -1 -16
-24z"/>
<path d="M1851 1919 c-1 -27 23 -47 34 -29 4 6 -1 10 -9 10 -8 0 -17 10 -19
23 -4 20 -4 19 -6 -4z"/>
<path d="M4490 1908 c0 -7 9 -26 20 -43 19 -28 20 -29 20 -7 0 28 -17 62 -30
62 -6 0 -10 -6 -10 -12z"/>
<path d="M1930 1891 c0 -5 -3 -17 -7 -27 -4 -11 -3 -15 4 -11 14 9 24 47 12
47 -5 0 -9 -4 -9 -9z"/>
<path d="M5200 1886 c0 -8 5 -18 10 -21 6 -3 10 3 10 14 0 12 -4 21 -10 21 -5
0 -10 -6 -10 -14z"/>
<path d="M5253 1888 c-6 -7 -14 -24 -18 -38 -7 -22 -6 -23 8 -11 10 8 31 12
52 9 34 -4 36 -2 33 21 -2 21 -9 27 -34 29 -17 2 -35 -3 -41 -10z"/>
<path d="M825 1866 c-34 -15 -71 -53 -62 -62 3 -4 22 1 41 10 19 9 42 16 51
16 17 0 44 26 45 43 0 11 -42 8 -75 -7z"/>
<path d="M6077 1848 c11 -23 19 -30 21 -21 2 9 -6 25 -18 37 l-22 21 19 -37z"/>
<path d="M5520 1860 c-13 -8 -12 -10 3 -10 9 0 17 5 17 10 0 12 -1 12 -20 0z"/>
<path d="M5017 1843 c-3 -4 1 -17 9 -28 10 -13 14 -15 14 -4 0 20 -16 43 -23
32z"/>
<path d="M2042 1820 c0 -14 2 -19 5 -12 2 6 2 18 0 25 -3 6 -5 1 -5 -13z"/>
<path d="M5416 1812 c-94 -33 -116 -59 -41 -49 26 4 53 11 59 16 6 5 34 11 61
13 61 7 108 24 100 38 -12 19 -100 10 -179 -18z"/>
<path d="M5000 1809 c0 -16 42 -89 52 -89 13 0 10 8 -18 56 -27 45 -34 52 -34
33z"/>
<path d="M1606 1773 c-20 -28 -37 -40 -73 -50 -27 -6 -57 -12 -69 -13 -11 0
-30 -11 -42 -25 -27 -30 -36 -31 -63 -4 -14 14 -26 18 -37 13 -9 -5 -42 -9
-72 -9 -42 0 -55 -4 -55 -15 0 -11 11 -14 46 -11 26 1 50 -2 54 -8 3 -6 17
-11 30 -11 13 0 27 -4 30 -10 10 -17 51 -11 70 10 10 11 30 20 44 20 42 1 103
34 145 79 22 25 44 40 52 37 9 -3 14 2 14 14 0 36 -46 25 -74 -17z"/>
<path d="M1032 1780 c0 -14 2 -19 5 -12 2 6 2 18 0 25 -3 6 -5 1 -5 -13z"/>
<path d="M1142 1760 c0 -19 2 -27 5 -17 2 9 2 25 0 35 -3 9 -5 1 -5 -18z"/>
<path d="M6017 1768 c-9 -5 -54 -11 -99 -15 -91 -6 -108 -14 -108 -49 0 -22 1
-23 35 -8 19 7 54 14 77 15 24 0 51 4 62 8 10 4 32 5 48 3 24 -4 34 -13 49
-46 23 -51 26 -19 3 46 -16 47 -38 63 -67 46z"/>
<path d="M4527 1753 c-4 -3 -7 -13 -7 -22 1 -13 3 -13 11 2 11 19 8 33 -4 20z"/>
<path d="M1022 1730 c0 -14 2 -19 5 -12 2 6 2 18 0 25 -3 6 -5 1 -5 -13z"/>
<path d="M1700 1726 c-6 -6 -10 -19 -10 -29 0 -16 2 -17 15 -7 12 10 21 10 41
1 24 -11 25 -10 22 16 -2 21 -8 27 -31 28 -15 0 -32 -4 -37 -9z"/>
<path d="M1820 1716 c-5 -15 -13 -38 -16 -52 -4 -14 -13 -28 -20 -31 -8 -3
-14 -14 -14 -25 0 -14 5 -18 18 -14 13 5 22 -2 32 -21 8 -16 15 -30 17 -32 1
-2 21 13 43 33 30 27 49 36 75 36 29 0 39 6 53 30 9 16 20 30 25 30 4 0 7 11
7 25 0 34 -12 31 -31 -8 -14 -28 -22 -33 -62 -37 -33 -4 -55 -14 -76 -34 -34
-32 -61 -29 -61 6 1 30 26 64 34 46 3 -7 3 5 -1 27 -7 51 -10 54 -23 21z"/>
<path d="M5653 1692 c-35 -11 -55 -24 -62 -39 -19 -41 -13 -42 49 -11 54 28
64 30 96 20 35 -10 35 -10 32 16 -2 22 -9 27 -33 29 -16 1 -53 -6 -82 -15z"/>
<path d="M1011 1690 c-1 -8 -4 -26 -7 -40 -5 -19 -4 -22 5 -14 7 6 11 24 8 40
-2 16 -5 22 -6 14z"/>
<path d="M920 1680 c0 -5 7 -10 15 -10 8 0 15 5 15 10 0 6 -7 10 -15 10 -8 0
-15 -4 -15 -10z"/>
<path d="M1215 1640 c-4 -6 7 -10 25 -10 18 0 29 4 25 10 -3 6 -15 10 -25 10
-10 0 -22 -4 -25 -10z"/>
<path d="M4450 1629 c0 -5 5 -7 10 -4 6 3 10 8 10 11 0 2 -4 4 -10 4 -5 0 -10
-5 -10 -11z"/>
<path d="M1247 1613 c-22 -6 -51 -59 -37 -68 6 -3 10 -1 10 5 0 5 15 18 34 27
21 10 32 21 29 29 -5 14 -6 15 -36 7z"/>
<path d="M4448 1565 c-3 -3 -3 -17 0 -30 3 -20 8 -23 22 -15 12 6 16 17 13 30
-5 19 -23 27 -35 15z"/>
<path d="M1576 1461 c-54 -56 -66 -73 -59 -88 5 -10 8 -85 7 -168 -3 -157 1
-205 17 -205 5 0 9 16 9 35 0 19 5 35 10 35 6 0 10 12 10 26 0 19 4 25 15 21
20 -8 28 9 14 32 -10 15 -9 24 4 45 19 29 22 40 6 31 -17 -11 -51 25 -39 41 6
6 8 24 4 39 -6 24 -4 26 17 23 15 -2 26 -12 30 -28 l6 -25 11 26 c12 30 40 45
56 29 6 -6 11 -31 10 -55 -1 -33 3 -45 15 -48 12 -3 10 -7 -9 -14 l-24 -10 22
-12 c16 -9 22 -21 23 -49 1 -21 3 -29 6 -17 3 11 8 25 12 30 9 13 -7 203 -25
295 -8 39 -41 80 -65 80 -8 0 -46 -31 -83 -69z m106 2 c6 -46 -19 -120 -35
-104 -14 14 -40 14 -32 1 3 -5 1 -10 -4 -10 -6 0 -11 5 -11 11 0 7 -8 17 -17
24 -15 11 -15 15 6 43 22 32 68 72 81 72 4 0 10 -17 12 -37z"/>
<path d="M1630 1426 c0 -7 7 -19 15 -26 12 -10 16 -9 21 3 3 9 3 21 -1 27 -9
15 -35 12 -35 -4z"/>
<path d="M1596 1412 c-3 -6 -1 -14 5 -17 15 -10 25 3 12 16 -7 7 -13 7 -17 1z"/>
<path d="M2102 1510 c0 -14 2 -19 5 -12 2 6 2 18 0 25 -3 6 -5 1 -5 -13z"/>
<path d="M2071 1497 c-6 -16 -15 -63 -20 -106 -4 -43 -13 -86 -19 -97 -11 -21
-11 -188 1 -200 4 -4 7 -16 7 -26 0 -10 5 -18 11 -18 8 0 10 12 6 34 -4 26 -1
37 16 52 l22 19 -22 3 c-22 3 -33 22 -14 22 5 0 12 38 16 85 7 82 16 108 31
84 4 -7 8 -30 10 -52 2 -22 8 -45 12 -51 5 -6 12 -28 15 -50 3 -21 13 -46 20
-55 8 -9 18 -31 22 -48 7 -37 19 -42 30 -15 5 9 9 105 11 212 4 190 3 194 -15
173 -15 -19 -18 -38 -16 -142 2 -100 0 -121 -12 -121 -10 0 -12 6 -8 19 3 11
2 22 -3 25 -6 3 -13 26 -16 51 -4 24 -11 47 -16 50 -8 5 -29 68 -49 145 l-8
35 -12 -28z"/>
<path d="M318 1451 c-26 -33 -51 -67 -55 -77 -6 -17 -5 -17 18 1 26 20 101
107 107 124 10 30 -28 3 -70 -48z"/>
<path d="M4493 1503 c-7 -2 -13 -14 -13 -26 1 -22 1 -22 15 -3 12 16 18 17 27
8 14 -14 48 -16 48 -2 0 20 -48 35 -77 23z"/>
<path d="M6060 1498 c0 -7 9 -35 20 -63 18 -46 19 -48 20 -19 0 37 -18 94 -31
94 -5 0 -9 -6 -9 -12z"/>
<path d="M1445 1465 c-14 -13 -25 -34 -25 -47 0 -21 4 -19 40 20 22 24 40 45
40 47 0 14 -34 2 -55 -20z"/>
<path d="M3841 1487 c2 -1 13 -9 24 -17 19 -14 19 -14 6 3 -7 9 -18 17 -24 17
-6 0 -8 -1 -6 -3z"/>
<path d="M3898 1421 c-5 -53 4 -70 27 -51 19 16 19 17 45 -55 30 -80 36 -125
19 -136 -10 -6 -13 -26 -11 -74 9 -163 -104 -295 -183 -214 -19 19 -24 36 -26
87 -1 34 2 67 8 73 11 11 6 120 -7 132 -4 5 -20 -11 -34 -35 -20 -34 -24 -52
-19 -81 3 -21 0 -50 -7 -67 -7 -16 -12 -53 -12 -82 0 -55 -13 -92 -28 -83 -5
3 -9 18 -9 33 0 62 -9 180 -15 220 -5 28 -4 47 4 57 9 10 7 21 -5 45 -14 27
-18 30 -32 18 -14 -11 -16 -11 -10 4 4 12 0 19 -14 23 -23 8 -77 -29 -111 -75
-11 -16 -38 -36 -60 -44 -40 -17 -41 -19 -29 -50 4 -10 2 -47 -4 -81 -7 -35
-9 -69 -4 -77 4 -8 2 -33 -7 -56 -10 -32 -11 -47 -3 -60 8 -13 7 -27 -5 -56
-17 -40 -20 -85 -10 -123 9 -32 24 -29 24 5 0 16 7 37 15 48 8 10 15 32 15 48
0 25 3 28 26 22 28 -7 28 -3 8 67 -4 13 2 21 25 30 34 13 36 30 4 35 -12 2
-28 11 -37 21 -16 17 -16 20 0 35 10 10 14 25 10 39 -3 12 -1 29 4 37 7 12 12
11 29 -4 12 -11 21 -27 21 -38 0 -10 5 -18 10 -18 6 0 10 7 10 16 0 11 5 14
16 10 9 -4 23 -1 30 5 7 6 17 8 23 5 16 -10 23 -83 11 -107 -10 -18 -9 -24 4
-31 22 -12 20 -31 -3 -23 -30 9 -36 -24 -6 -35 23 -9 25 -13 19 -52 -3 -24 -7
-49 -10 -55 -2 -7 1 -13 6 -13 5 0 13 12 16 28 4 15 12 33 18 41 6 7 9 26 8
41 -2 16 1 31 7 35 6 3 11 -1 11 -9 0 -8 4 -17 9 -20 18 -12 40 6 55 45 19 46
37 49 71 13 29 -31 31 -49 9 -71 -10 -10 -12 -19 -6 -25 10 -10 62 12 96 41
14 12 20 13 23 4 10 -29 31 -10 48 42 12 40 22 55 33 53 11 -2 18 8 23 32 4
19 12 36 18 38 6 2 11 21 11 41 0 21 3 41 8 45 4 4 8 20 9 34 4 37 4 42 -1 87
-9 86 -16 127 -26 146 -6 11 -11 30 -10 42 4 40 0 57 -11 57 -6 0 -28 13 -48
28 -20 16 -46 31 -58 34 -19 5 -22 1 -25 -41z m-302 -283 c-6 -85 -45 -157
-62 -114 -3 8 -13 12 -24 9 -13 -4 -23 5 -35 31 -16 33 -16 36 2 60 10 14 24
26 31 26 6 0 12 4 12 9 0 9 44 29 68 30 9 1 11 -14 8 -51z"/>
<path d="M3560 1139 c0 -6 -9 -9 -19 -6 -13 3 -21 -2 -25 -15 -3 -14 -10 -19
-20 -15 -8 3 -18 2 -21 -2 -7 -13 20 -32 37 -26 9 4 23 -1 31 -10 15 -14 17
-14 26 4 8 15 7 20 -5 25 -15 6 -15 8 0 31 9 14 12 25 6 25 -5 0 -10 -5 -10
-11z"/>
<path d="M4705 1430 c-14 -22 -32 -40 -39 -40 -21 0 -46 -28 -46 -51 0 -19 1
-19 28 -2 45 29 102 92 102 113 0 31 -17 24 -45 -20z"/>
<path d="M1172 1435 c5 -25 -11 -46 -44 -58 -21 -7 -22 -16 -7 -37 8 -11 12
-12 16 -2 2 6 12 12 20 12 16 0 53 36 53 52 0 4 -4 8 -10 8 -5 0 -10 11 -10
25 0 14 -5 25 -11 25 -7 0 -9 -10 -7 -25z"/>
<path d="M1742 1440 c0 -14 2 -19 5 -12 2 6 2 18 0 25 -3 6 -5 1 -5 -13z"/>
<path d="M5900 1446 c-5 -5 -10 -14 -10 -19 0 -5 -12 -23 -26 -41 -24 -28 -25
-31 -9 -35 11 -2 27 9 42 28 22 28 30 31 79 31 47 0 56 -3 64 -22 13 -34 12 2
-1 40 -11 31 -12 32 -70 30 -32 -1 -63 -6 -69 -12z"/>
<path d="M4135 1436 c-17 -12 -17 -13 8 -18 21 -4 27 -1 27 13 0 22 -10 24
-35 5z"/>
<path d="M4790 1426 c0 -14 5 -26 10 -26 6 0 10 9 10 19 0 11 -4 23 -10 26 -6
4 -10 -5 -10 -19z"/>
<path d="M5810 1413 c0 -25 1 -26 16 -11 9 9 13 21 10 27 -13 20 -26 11 -26
-16z"/>
<path d="M1837 1423 c-10 -16 -14 -399 -4 -409 17 -17 22 14 19 127 -2 65 1
119 6 119 5 0 14 -33 21 -72 14 -80 13 -75 45 -138 l23 -44 14 24 c18 34 21
400 2 400 -23 0 -27 -25 -26 -153 1 -92 -2 -127 -11 -124 -6 2 -11 10 -12 18
0 8 -3 21 -6 29 -22 58 -41 124 -51 175 -8 36 -15 55 -20 48z"/>
<path d="M2442 1370 c-45 -51 -67 -59 -102 -38 -38 24 -43 1 -44 -192 -1 -99
2 -180 6 -180 5 0 8 9 8 19 0 28 18 36 39 17 26 -23 41 -20 41 10 0 20 4 25
16 20 13 -5 14 -1 9 23 -5 24 -1 34 22 55 15 14 23 26 18 27 -6 1 -21 2 -35 2
-23 2 -25 6 -24 47 1 35 5 46 19 49 10 2 24 -5 32 -14 9 -14 16 -15 26 -7 8 7
17 9 20 5 4 -3 14 0 23 8 14 11 19 10 35 -11 21 -29 23 -43 9 -71 -9 -16 -7
-19 10 -19 11 0 20 -5 20 -11 0 -6 -9 -9 -20 -6 -15 4 -20 0 -20 -14 0 -13 6
-19 18 -17 14 3 17 -5 17 -49 -1 -29 2 -53 6 -53 4 0 17 21 29 47 28 61 33
176 9 211 -9 13 -15 32 -12 42 3 10 -1 29 -8 41 -7 13 -13 37 -13 54 -1 26 -6
31 -36 36 -19 4 -44 10 -55 13 -15 4 -30 -6 -63 -44z m88 -20 c0 -22 -9 -56
-19 -76 -19 -35 -19 -36 -32 -13 -11 21 -13 21 -24 6 -13 -18 -31 -24 -20 -7
3 5 -3 15 -15 22 -11 7 -20 16 -20 21 0 16 63 76 84 80 44 9 46 8 46 -33z"/>
<path d="M2472 1315 c12 -26 38 -34 38 -12 0 17 -20 37 -37 37 -10 0 -10 -5
-1 -25z"/>
<path d="M2430 1305 c0 -8 5 -15 10 -15 6 0 10 7 10 15 0 8 -4 15 -10 15 -5 0
-10 -7 -10 -15z"/>
<path d="M4873 1372 c-14 -23 -2 -45 20 -36 20 7 23 54 4 54 -7 0 -17 -8 -24
-18z"/>
<path d="M1812 1360 c0 -14 2 -19 5 -12 2 6 2 18 0 25 -3 6 -5 1 -5 -13z"/>
<path d="M4280 1373 c0 -5 4 -14 9 -21 6 -10 10 -9 14 7 3 14 0 21 -9 21 -8 0
-14 -3 -14 -7z"/>
<path d="M1501 1354 c0 -11 3 -14 6 -6 3 7 2 16 -1 19 -3 4 -6 -2 -5 -13z"/>
<path d="M3782 1345 c8 -18 14 -22 19 -13 4 7 3 18 -3 25 -18 22 -28 14 -16
-12z"/>
<path d="M4818 1346 c-10 -7 -18 -23 -18 -34 0 -17 6 -21 23 -20 19 2 23 8 23
35 0 36 -3 38 -28 19z"/>
<path d="M3860 1338 c0 -7 -3 -23 -6 -36 -5 -18 -3 -21 10 -16 17 7 23 64 6
64 -5 0 -10 -6 -10 -12z"/>
<path d="M3925 1335 c-11 -34 -22 -50 -34 -51 -6 -1 -13 -2 -16 -3 -3 0 2 -13
12 -27 l17 -27 8 32 c5 17 15 31 23 31 16 0 18 14 5 45 l-8 20 -7 -20z"/>
<path d="M4357 1343 c-4 -3 -7 -17 -7 -31 0 -18 4 -23 16 -18 9 3 18 6 20 6 2
0 4 11 4 25 0 24 -18 34 -33 18z"/>
<path d="M1218 1315 c-6 -14 -15 -25 -20 -25 -4 0 -8 -12 -7 -27 0 -25 1 -26
9 -8 4 11 19 31 34 44 14 13 23 28 20 32 -10 16 -24 9 -36 -16z"/>
<path d="M2620 1326 c0 -8 5 -18 10 -21 6 -3 10 3 10 14 0 12 -4 21 -10 21 -5
0 -10 -6 -10 -14z"/>
<path d="M3798 1305 c-20 -26 -22 -35 -10 -35 15 0 29 16 36 38 9 29 -4 28
-26 -3z"/>
<path d="M3223 1299 c-20 -7 -22 -14 -20 -81 2 -89 -18 -128 -64 -128 -43 0
-71 49 -66 115 2 28 7 58 12 68 7 16 3 18 -26 15 -28 -2 -34 -7 -34 -26 0 -13
-7 -29 -15 -35 -8 -7 -14 -21 -12 -33 2 -11 -4 -27 -13 -34 -14 -12 -14 -14 1
-31 11 -12 13 -23 6 -34 -11 -21 -4 -65 12 -65 8 0 8 -3 0 -8 -9 -6 -38 -114
-48 -182 -3 -14 -10 -43 -16 -65 -24 -81 -24 -105 1 -131 32 -34 42 -30 34 16
-6 36 -4 43 26 72 19 19 33 44 33 58 1 15 7 25 16 25 15 0 17 16 6 59 -5 20
-2 25 16 28 13 2 24 11 26 22 3 14 0 17 -12 13 -18 -7 -30 12 -39 61 -4 18 -2
32 3 32 6 0 10 9 10 19 0 11 5 23 10 26 15 9 40 -14 40 -36 0 -23 16 -25 24
-3 5 13 9 14 21 4 12 -10 15 -9 15 4 0 9 7 16 15 16 8 0 15 -9 15 -20 0 -11 9
-25 19 -32 16 -9 17 -14 7 -22 -8 -6 -18 -26 -24 -43 -9 -27 -8 -33 4 -33 7 0
14 -5 14 -11 0 -6 -7 -9 -15 -6 -24 10 -27 -11 -4 -32 18 -16 21 -27 15 -60
-3 -21 -9 -47 -13 -56 -4 -12 -2 -16 7 -13 8 2 18 20 23 39 5 19 14 40 20 47
20 24 24 136 12 277 -5 50 -8 116 -7 147 2 62 -2 70 -35 57z"/>
<path d="M4270 1300 c0 -5 5 -10 11 -10 5 0 7 5 4 10 -3 6 -8 10 -11 10 -2 0
-4 -4 -4 -10z"/>
<path d="M1900 1293 c0 -5 5 -15 10 -23 8 -12 10 -11 10 8 0 12 -4 22 -10 22
-5 0 -10 -3 -10 -7z"/>
<path d="M2240 1279 c0 -15 4 -19 16 -15 9 3 20 6 25 6 5 0 9 7 9 15 0 9 -9
15 -25 15 -19 0 -25 -5 -25 -21z"/>
<path d="M4136 1293 c-11 -12 -6 -41 8 -46 13 -5 26 12 26 33 0 10 -26 20 -34
13z"/>
<path d="M1400 1266 c0 -14 5 -28 10 -31 6 -3 10 -17 10 -31 0 -35 31 -28 41
9 6 24 5 26 -7 17 -11 -10 -16 -7 -24 15 -5 14 -10 31 -10 36 0 5 -4 9 -10 9
-5 0 -10 -11 -10 -24z"/>
<path d="M1650 1266 c0 -20 5 -26 21 -26 15 0 20 5 17 22 -5 34 -38 37 -38 4z"/>
<path d="M2090 1252 c0 -10 5 -23 11 -29 6 -6 11 -30 11 -52 -1 -34 2 -41 19
-41 11 0 19 3 17 8 -20 41 -27 62 -33 95 -6 37 -25 52 -25 19z"/>
<path d="M4590 1245 c0 -16 -6 -25 -15 -25 -16 0 -21 -35 -6 -45 13 -7 18 3
30 53 5 25 5 42 0 42 -5 0 -9 -11 -9 -25z"/>
<path d="M2986 1244 c-4 -10 -1 -14 6 -12 15 5 23 28 10 28 -5 0 -13 -7 -16
-16z"/>
<path d="M4316 1230 c-28 -33 -31 -45 -17 -54 14 -9 65 64 54 75 -7 7 -19 -1
-37 -21z"/>
<path d="M5777 1253 c-2 -4 0 -19 6 -33 l10 -25 5 24 c4 24 -12 50 -21 34z"/>
<path d="M5953 1252 c-30 -2 -56 -9 -64 -18 -17 -20 -5 -28 21 -14 27 14 153
7 158 -9 8 -25 24 -10 17 16 -9 36 -12 38 -29 24 -9 -8 -22 -9 -33 -4 -10 4
-41 7 -70 5z"/>
<path d="M3086 1234 c-3 -9 -6 -25 -6 -37 0 -20 0 -20 15 -1 16 21 20 54 6 54
-5 0 -12 -7 -15 -16z"/>
<path d="M1807 1233 c-4 -3 -7 -13 -7 -22 1 -13 3 -13 11 2 11 19 8 33 -4 20z"/>
<path d="M1231 1211 c-6 -11 -11 -27 -11 -37 0 -16 1 -16 20 1 21 19 26 40 11
50 -6 3 -15 -3 -20 -14z"/>
<path d="M4080 1225 c0 -18 19 -40 26 -32 4 4 0 15 -9 24 -9 10 -17 13 -17 8z"/>
<path d="M5693 1211 c-35 -17 -49 -59 -15 -46 9 3 29 9 45 12 20 4 27 11 27
29 0 27 -11 28 -57 5z"/>
<path d="M1990 1210 c0 -5 5 -10 10 -10 6 0 10 5 10 10 0 6 -4 10 -10 10 -5 0
-10 -4 -10 -10z"/>
<path d="M1618 1185 c-6 -14 -8 -28 -5 -32 9 -8 47 27 47 44 0 23 -30 14 -42
-12z"/>
<path d="M2092 1190 c0 -14 2 -19 5 -12 2 6 2 18 0 25 -3 6 -5 1 -5 -13z"/>
<path d="M2266 1201 c-4 -6 -4 -17 -1 -23 4 -7 0 -5 -8 5 -14 16 -15 15 -19
-13 -3 -19 -1 -27 5 -21 5 5 15 7 22 5 15 -6 26 28 15 46 -5 9 -9 9 -14 1z"/>
<path d="M2420 1194 c0 -8 5 -12 10 -9 6 3 10 10 10 16 0 5 -4 9 -10 9 -5 0
-10 -7 -10 -16z"/>
<path d="M5857 1194 c-4 -4 -7 -14 -7 -23 0 -11 3 -12 11 -4 6 6 10 16 7 23
-2 6 -7 8 -11 4z"/>
<path d="M2485 1182 c-3 -3 -5 -13 -5 -23 0 -22 50 -36 61 -17 18 28 10 45
-21 45 -16 0 -32 -3 -35 -5z"/>
<path d="M4365 1170 c-7 -11 8 -41 29 -60 14 -11 16 -9 16 11 -1 23 -21 59
-33 59 -3 0 -9 -4 -12 -10z"/>
<path d="M5470 1164 c-110 -20 -120 -23 -120 -39 0 -13 4 -13 27 2 20 14 48
18 110 18 67 0 83 3 81 14 -4 20 -13 20 -98 5z"/>
<path d="M1997 1164 c-3 -5 -7 -29 -10 -54 -2 -25 -2 -36 0 -26 3 11 11 29 19
40 8 13 10 27 5 35 -5 7 -11 9 -14 5z"/>
<path d="M4145 1149 c-8 -23 -1 -34 14 -24 13 8 15 45 2 45 -5 0 -13 -9 -16
-21z"/>
<path d="M5795 1130 c3 -25 10 -49 15 -54 12 -12 2 62 -11 83 -7 12 -9 4 -4
-29z"/>
<path d="M6091 1154 c0 -11 3 -14 6 -6 3 7 2 16 -1 19 -3 4 -6 -2 -5 -13z"/>
<path d="M1682 1149 c2 -7 10 -15 17 -17 8 -3 12 1 9 9 -2 7 -10 15 -17 17 -8
3 -12 -1 -9 -9z"/>
<path d="M1756 1143 c-3 -4 -6 -15 -6 -25 0 -10 -12 -37 -26 -59 -14 -23 -23
-44 -20 -47 10 -9 29 15 40 50 14 42 56 47 68 8 6 -19 6 -16 3 10 -3 19 -10
37 -15 38 -6 2 -16 10 -24 17 -7 8 -16 11 -20 8z"/>
<path d="M4461 1134 c0 -11 3 -14 6 -6 3 7 2 16 -1 19 -3 4 -6 -2 -5 -13z"/>
<path d="M1507 1133 c-4 -3 -7 -11 -7 -17 0 -6 5 -5 12 2 6 6 9 14 7 17 -3 3
-9 2 -12 -2z"/>
<path d="M3955 1128 c-3 -7 -1 -26 4 -43 9 -29 9 -29 10 13 1 41 -5 54 -14 30z"/>
<path d="M1084 1119 c-8 -14 11 -33 25 -25 11 7 4 36 -9 36 -5 0 -12 -5 -16
-11z"/>
<path d="M2942 1114 c-19 -13 -31 -44 -18 -44 20 0 56 22 56 34 0 23 -15 27
-38 10z"/>
<path d="M4296 1085 c-10 -21 -26 -37 -41 -41 -14 -3 -25 -10 -25 -14 0 -5 -3
-16 -6 -25 -5 -13 -2 -16 17 -13 16 2 30 15 41 40 10 20 27 39 38 43 23 7 25
18 6 34 -11 9 -17 4 -30 -24z"/>
<path d="M4570 1090 c0 -21 5 -30 16 -30 11 0 14 5 10 16 -3 9 -6 22 -6 30 0
8 -4 14 -10 14 -5 0 -10 -13 -10 -30z"/>
<path d="M1875 1070 c2 -25 4 -48 4 -52 2 -16 20 -7 26 13 4 13 1 25 -8 32 -9
7 -18 21 -21 32 -3 11 -3 0 -1 -25z"/>
<path d="M2442 1089 c-23 -21 -21 -39 3 -39 14 0 32 46 23 55 -2 3 -14 -4 -26
-16z"/>
<path d="M2650 1091 c0 -20 17 -37 27 -28 7 8 -7 47 -18 47 -5 0 -9 -9 -9 -19z"/>
<path d="M3660 1085 c0 -15 4 -24 10 -20 6 3 10 12 10 20 0 8 -4 17 -10 20 -6
4 -10 -5 -10 -20z"/>
<path d="M4435 1074 c-9 -21 -23 -46 -32 -56 -21 -23 -9 -36 12 -14 9 9 20 16
24 16 9 0 23 81 16 88 -2 2 -11 -13 -20 -34z"/>
<path d="M5752 1070 c2 -14 9 -25 18 -25 9 0 16 11 18 25 2 20 -2 26 -18 26
-16 0 -20 -6 -18 -26z"/>
<path d="M3282 1059 c7 -20 14 -27 20 -21 6 6 6 17 -1 31 -18 32 -31 25 -19
-10z"/>
<path d="M2003 1064 c-4 -10 0 -20 10 -26 10 -5 17 -17 17 -27 0 -10 6 -24 14
-31 8 -6 17 -24 19 -38 l4 -27 2 26 c1 24 -44 139 -55 139 -3 0 -7 -7 -11 -16z"/>
<path d="M4090 1055 c0 -13 -4 -27 -10 -30 -5 -3 -10 -16 -9 -28 0 -20 2 -19
10 5 13 34 40 44 56 22 12 -17 13 -17 13 2 0 11 -13 26 -30 36 -30 17 -30 17
-30 -7z"/>
<path d="M3686 1054 c-4 -9 -4 -19 -2 -21 8 -8 26 8 26 23 0 19 -16 18 -24 -2z"/>
<path d="M2072 1040 c0 -14 2 -19 5 -12 2 6 2 18 0 25 -3 6 -5 1 -5 -13z"/>
<path d="M5827 1040 c3 -11 7 -20 9 -20 2 0 4 9 4 20 0 11 -4 20 -9 20 -5 0
-7 -9 -4 -20z"/>
<path d="M1564 1035 c-4 -8 -3 -23 1 -32 6 -17 7 -17 21 1 8 11 14 26 14 33 0
18 -29 16 -36 -2z"/>
<path d="M2504 1039 c-6 -11 51 -77 59 -68 3 2 8 14 11 27 6 16 3 22 -9 22 -8
0 -18 7 -21 15 -7 18 -30 20 -40 4z"/>
<path d="M3364 1039 c-3 -6 -1 -16 5 -22 8 -8 11 -5 11 11 0 24 -5 28 -16 11z"/>
<path d="M1962 1002 c-6 -18 -20 -46 -32 -61 -25 -36 -28 -60 -4 -40 22 18 56
94 52 116 -3 13 -7 9 -16 -15z"/>
<path d="M2631 1003 c-6 -16 -32 -49 -56 -75 -40 -41 -43 -48 -29 -56 14 -8
25 0 56 37 57 68 56 67 58 82 7 46 -12 53 -29 12z"/>
<path d="M4795 1006 c-3 -14 -7 -37 -10 -51 -3 -14 -1 -25 4 -25 5 0 12 21 16
46 7 49 0 74 -10 30z"/>
<path d="M1861 1004 c0 -11 3 -14 6 -6 3 7 2 16 -1 19 -3 4 -6 -2 -5 -13z"/>
<path d="M1430 995 c0 -10 10 -15 26 -15 26 0 26 0 9 -26 -20 -31 -6 -56 19
-35 12 10 23 10 45 3 32 -11 41 -7 41 17 0 20 -37 45 -45 31 -3 -5 -23 1 -45
15 -46 29 -50 30 -50 10z"/>
<path d="M3136 988 c-9 -36 -8 -38 24 -38 25 0 30 4 30 25 0 14 -4 25 -9 25
-5 0 -16 3 -24 6 -9 3 -17 -3 -21 -18z"/>
<path d="M5023 1002 c-10 -6 -9 -13 3 -31 15 -20 18 -21 33 -7 15 14 20 13 49
-4 32 -20 82 -27 82 -12 -1 18 -18 31 -63 46 -52 17 -85 20 -104 8z"/>
<path d="M1820 978 c0 -15 5 -30 10 -33 13 -8 13 25 0 45 -8 12 -10 9 -10 -12z"/>
<path d="M2420 975 c0 -21 -5 -25 -30 -25 -19 0 -33 7 -40 20 -14 25 -30 26
-30 1 0 -17 58 -71 77 -71 8 0 63 81 63 94 0 3 -9 6 -20 6 -15 0 -20 -7 -20
-25z"/>
<path d="M4460 981 c0 -11 5 -23 10 -26 6 -3 10 3 10 14 0 11 -4 23 -10 26 -5
3 -10 -3 -10 -14z"/>
<path d="M5653 994 c-20 -9 -2 -34 24 -34 18 0 24 5 21 17 -3 18 -24 26 -45
17z"/>
<path d="M2162 955 c-14 -31 -15 -35 -3 -35 9 0 25 49 18 56 -2 2 -9 -7 -15
-21z"/>
<path d="M3670 966 c0 -9 5 -16 10 -16 6 0 10 4 10 9 0 6 -4 13 -10 16 -5 3
-10 -1 -10 -9z"/>
<path d="M3462 958 c6 -18 28 -21 28 -4 0 9 -7 16 -16 16 -9 0 -14 -5 -12 -12z"/>
<path d="M4164 952 c-13 -21 -7 -42 12 -42 8 0 14 10 14 24 0 31 -13 40 -26
18z"/>
<path d="M4880 955 c-7 -8 -19 -15 -27 -15 -7 0 -16 -7 -19 -15 -4 -10 -13
-13 -25 -10 -15 5 -19 1 -19 -15 0 -33 29 -37 54 -5 15 19 29 26 46 23 20 -2
24 1 22 17 -5 30 -17 38 -32 20z"/>
<path d="M3570 950 c0 -5 5 -10 10 -10 6 0 10 5 10 10 0 6 -4 10 -10 10 -5 0
-10 -4 -10 -10z"/>
<path d="M1037 924 c-11 -11 5 -34 24 -34 12 0 19 7 19 20 0 19 -28 28 -43 14z"/>
<path d="M1227 923 c-4 -3 -7 -17 -7 -29 0 -17 4 -22 15 -18 8 4 15 17 15 30
0 23 -10 31 -23 17z"/>
<path d="M1840 913 c0 -13 5 -23 10 -23 13 0 13 11 0 30 -8 12 -10 11 -10 -7z"/>
<path d="M2290 902 c1 -22 9 -31 43 -48 38 -18 43 -19 44 -5 0 9 -19 31 -43
48 l-44 33 0 -28z"/>
<path d="M3560 921 c-27 -3 -40 -17 -40 -42 0 -12 7 -14 31 -11 31 5 44 20 37
44 -2 8 -13 12 -28 9z"/>
<path d="M4047 924 c-4 -4 -7 -18 -7 -31 0 -14 -5 -33 -10 -44 -6 -10 -7 -19
-2 -19 13 0 43 83 34 92 -5 5 -11 5 -15 2z"/>
<path d="M1143 901 c-6 -10 -15 -36 -19 -57 -4 -22 -13 -53 -21 -71 -18 -44
-17 -62 1 -43 8 8 19 37 23 65 10 56 38 75 48 32 4 -14 17 -29 31 -36 21 -9
24 -8 24 7 0 10 -13 31 -30 47 -16 16 -30 39 -30 52 0 28 -11 30 -27 4z"/>
<path d="M4995 912 c-12 -12 -4 -42 15 -52 15 -8 21 -6 30 9 5 11 10 24 10 29
0 11 -46 22 -55 14z"/>
<path d="M3098 893 c-31 -36 -31 -46 0 -24 18 12 32 27 32 32 0 15 -16 11 -32
-8z"/>
<path d="M3350 884 c0 -14 4 -23 10 -19 6 3 10 15 10 26 0 10 -4 19 -10 19 -5
0 -10 -12 -10 -26z"/>
<path d="M3281 884 c0 -11 3 -14 6 -6 3 7 2 16 -1 19 -3 4 -6 -2 -5 -13z"/>
<path d="M5187 875 c-6 -14 53 -69 101 -94 20 -11 22 -9 22 13 0 20 -12 33
-55 61 -64 40 -61 40 -68 20z"/>
<path d="M5720 858 c0 -24 16 -39 34 -32 9 4 16 14 14 23 -4 20 -48 28 -48 9z"/>
<path d="M96 825 c-15 -8 -35 -15 -42 -15 -8 0 -14 -10 -14 -21 0 -18 4 -20
23 -14 51 17 94 17 110 0 16 -15 17 -15 17 3 0 19 -39 62 -56 62 -5 0 -22 -7
-38 -15z"/>
<path d="M3141 831 c-10 -6 -10 -10 -1 -16 6 -4 20 -21 30 -38 16 -25 20 -28
25 -14 6 15 -22 77 -35 77 -3 0 -11 -4 -19 -9z"/>
<path d="M3493 827 c-23 -10 -38 -40 -29 -56 6 -9 61 13 70 27 2 4 -1 14 -7
23 -9 12 -17 14 -34 6z"/>
<path d="M3736 788 c-21 -65 -39 -90 -62 -86 -11 2 -26 -11 -43 -38 -14 -23
-38 -59 -52 -80 -15 -22 -25 -41 -23 -43 7 -7 28 14 55 58 19 30 44 53 71 66
33 15 45 28 53 55 15 51 24 63 39 51 29 -24 36 27 8 52 -10 10 -21 17 -24 17
-3 0 -13 -24 -22 -52z"/>
<path d="M1292 818 c-17 -17 -15 -38 2 -32 17 7 28 31 17 38 -4 3 -13 0 -19
-6z"/>
<path d="M4550 821 c0 -28 21 -61 39 -61 26 0 41 -28 42 -82 1 -24 4 -56 8
-73 l7 -30 17 32 c19 35 22 73 7 73 -5 0 -10 -11 -10 -25 0 -14 -4 -25 -10
-25 -6 0 -10 28 -10 64 0 63 0 64 -45 100 -25 21 -45 33 -45 27z"/>
<path d="M4510 817 c0 -4 7 -24 15 -44 12 -28 18 -34 27 -25 9 9 8 15 -4 24
-8 7 -20 22 -26 33 -6 11 -12 16 -12 12z"/>
<path d="M4013 795 c-3 -9 -3 -18 -1 -21 3 -3 8 4 11 16 6 23 -1 27 -10 5z"/>
<path d="M3245 763 c-9 -48 -22 -73 -39 -73 -17 0 -46 -43 -46 -66 0 -15 4
-14 25 6 27 26 85 130 85 155 0 30 -18 14 -25 -22z"/>
<path d="M3972 778 c-15 -37 -52 -56 -64 -34 -8 15 -12 15 -38 -4 -16 -11 -32
-30 -36 -42 -5 -16 -8 -18 -16 -7 -7 11 -11 11 -15 1 -2 -6 -9 -10 -14 -6 -18
10 -9 -32 10 -48 18 -15 20 -14 42 20 25 38 56 53 69 32 9 -15 70 26 70 46 0
7 4 14 8 16 5 2 5 14 2 28 l-7 25 -11 -27z"/>
<path d="M1010 773 c0 -5 9 -19 20 -33 18 -23 20 -24 20 -4 0 20 -17 44 -32
44 -4 0 -8 -3 -8 -7z"/>
<path d="M3348 774 c-5 -4 -8 -16 -8 -28 0 -14 3 -17 11 -9 6 6 9 19 7 28 -1
9 -6 13 -10 9z"/>
<path d="M1267 756 c-4 -10 -7 -32 -6 -49 0 -18 3 -25 6 -17 3 8 19 27 37 42
17 15 26 28 19 28 -6 0 -15 -5 -18 -11 -5 -6 -11 -4 -19 7 -12 16 -13 16 -19
0z"/>
<path d="M4858 747 c-51 -23 -58 -36 -32 -58 13 -11 18 -10 32 8 10 12 29 25
45 28 17 5 27 14 27 26 0 24 -13 23 -72 -4z"/>
<path d="M3063 746 c-5 -9 -20 -18 -33 -21 -35 -7 -53 -29 -45 -55 6 -20 8
-20 24 -6 10 9 23 16 29 16 18 0 52 55 42 69 -6 11 -10 10 -17 -3z"/>
<path d="M3531 747 c-15 -15 -14 -37 2 -37 8 0 22 -9 32 -20 17 -19 20 -19 28
-4 7 12 5 19 -7 26 -9 5 -16 15 -16 22 0 19 -25 27 -39 13z"/>
<path d="M3990 721 c0 -6 5 -13 10 -16 6 -3 10 1 10 9 0 9 -4 16 -10 16 -5 0
-10 -4 -10 -9z"/>
<path d="M4661 714 c0 -11 3 -14 6 -6 3 7 2 16 -1 19 -3 4 -6 -2 -5 -13z"/>
<path d="M3445 671 c-3 -11 -16 -21 -28 -23 -29 -4 -38 -48 -9 -48 19 0 75 74
64 84 -10 11 -21 6 -27 -13z"/>
<path d="M5590 670 c0 -6 8 -13 18 -16 45 -15 87 -42 120 -78 l35 -40 -7 34
c-3 19 -12 38 -19 41 -7 4 -27 21 -45 38 -23 23 -41 31 -67 31 -19 0 -35 -5
-35 -10z"/>
<path d="M5336 645 c9 -40 28 -70 60 -92 15 -10 37 -28 49 -41 l23 -22 16 25
c18 28 47 33 66 10 17 -20 30 -19 30 3 0 21 -40 62 -60 62 -8 0 -24 -12 -36
-27 l-22 -28 -22 28 c-13 16 -33 33 -46 37 -13 5 -33 24 -44 42 l-21 33 7 -30z"/>
<path d="M1109 633 c-13 -35 2 -49 26 -23 10 11 27 20 38 20 16 0 17 3 7 15
-21 25 -59 19 -71 -12z"/>
<path d="M2911 621 c-16 -28 -14 -41 7 -41 9 0 31 -8 47 -19 l30 -18 26 27
c23 26 23 29 7 39 -14 9 -16 8 -11 -5 5 -14 2 -14 -32 1 -21 8 -44 20 -51 26
-9 7 -15 5 -23 -10z"/>
<path d="M3340 588 c0 -13 42 -78 51 -78 6 0 6 7 0 18 -16 26 -51 68 -51 60z"/>
<path d="M61 557 c2 -1 12 -9 22 -16 15 -12 17 -12 11 3 -3 9 -13 16 -22 16
-8 0 -13 -1 -11 -3z"/>
<path d="M5800 512 c0 -26 15 -59 39 -83 9 -10 31 -35 50 -58 l33 -40 32 23
c64 47 71 44 105 -44 20 -52 21 -53 15 -15 -6 38 -48 145 -57 145 -3 0 -25
-11 -50 -25 -24 -14 -51 -23 -58 -20 -8 3 -30 28 -49 56 -65 93 -59 87 -60 61z"/>
<path d="M5593 443 c-4 -11 7 -28 35 -55 47 -43 67 -49 57 -17 -7 21 -68 89
-80 89 -3 0 -8 -7 -12 -17z"/>
<path d="M4920 415 c0 -8 -8 -19 -17 -22 -10 -4 -27 -15 -38 -25 -17 -16 -18
-20 -5 -28 9 -6 16 -6 18 0 2 6 17 10 33 10 22 0 29 -5 29 -19 0 -26 10 -51
21 -51 15 0 10 40 -6 56 -8 9 -15 31 -15 49 0 19 -4 37 -10 40 -5 3 -10 -1
-10 -10z"/>
<path d="M5786 334 c-9 -24 -7 -54 4 -54 6 0 10 16 10 35 0 38 -4 44 -14 19z"/>
<path d="M68 246 c-25 -19 -22 -36 6 -36 13 0 31 -3 40 -6 24 -9 21 33 -3 46
-24 12 -22 12 -43 -4z"/>
<path d="M510 242 c-42 -20 -147 -119 -137 -129 4 -4 26 12 50 34 47 46 76 63
106 63 17 0 41 26 41 44 0 11 -25 6 -60 -12z"/>
<path d="M6080 233 c0 -10 5 -25 10 -33 8 -12 10 -9 10 12 0 15 -4 30 -10 33
-5 3 -10 -2 -10 -12z"/>
<path d="M170 210 c-10 -18 -8 -20 20 -20 23 0 30 4 30 20 0 13 -7 20 -20 20
-10 0 -24 -9 -30 -20z"/>
<path d="M580 166 c0 -17 5 -26 16 -26 10 0 14 7 12 22 -5 32 -28 35 -28 4z"/>
</g>
</svg>
